%TF.GenerationSoftware,KiCad,Pcbnew,(5.1.9)-1*%
%TF.CreationDate,2021-04-04T23:23:38-07:00*%
%TF.ProjectId,esp8266_power,65737038-3236-4365-9f70-6f7765722e6b,rev?*%
%TF.SameCoordinates,Original*%
%TF.FileFunction,Soldermask,Top*%
%TF.FilePolarity,Negative*%
%FSLAX46Y46*%
G04 Gerber Fmt 4.6, Leading zero omitted, Abs format (unit mm)*
G04 Created by KiCad (PCBNEW (5.1.9)-1) date 2021-04-04 23:23:38*
%MOMM*%
%LPD*%
G01*
G04 APERTURE LIST*
%ADD10C,1.524000*%
%ADD11R,1.700000X1.700000*%
%ADD12O,1.700000X1.700000*%
G04 APERTURE END LIST*
D10*
%TO.C,U1*%
X132155001Y-86435001D03*
X132155001Y-88975001D03*
X132155001Y-91515001D03*
X132155001Y-94055001D03*
X132155001Y-96595001D03*
X132155001Y-99135001D03*
X132155001Y-101675001D03*
X132155001Y-104215001D03*
X132155001Y-106755001D03*
X132155001Y-109295001D03*
X132155001Y-111835001D03*
X132155001Y-114375001D03*
X132155001Y-116915001D03*
X132155001Y-119455001D03*
X132155001Y-121995001D03*
X160095001Y-121995001D03*
X160095001Y-119455001D03*
X160095001Y-116915001D03*
X160095001Y-114375001D03*
X160095001Y-111835001D03*
X160095001Y-109295001D03*
X160095001Y-106755001D03*
X160095001Y-104215001D03*
X160095001Y-101675001D03*
X160095001Y-99135001D03*
X160095001Y-96595001D03*
X160095001Y-94055001D03*
X160095001Y-91515001D03*
X160095001Y-88975001D03*
X160095001Y-86435001D03*
%TD*%
D11*
%TO.C,J1*%
X121920000Y-114300000D03*
D12*
X121920000Y-116840000D03*
X121920000Y-119380000D03*
X121920000Y-121920000D03*
%TD*%
%TO.C,J2*%
X166370000Y-118110000D03*
X168910000Y-118110000D03*
X171450000Y-118110000D03*
D11*
X173990000Y-118110000D03*
%TD*%
%TO.C,J3*%
X179070000Y-97790000D03*
D12*
X179070000Y-100330000D03*
X176530000Y-97790000D03*
X176530000Y-100330000D03*
X173990000Y-97790000D03*
X173990000Y-100330000D03*
X171450000Y-97790000D03*
X171450000Y-100330000D03*
X168910000Y-97790000D03*
X168910000Y-100330000D03*
%TD*%
M02*
