%TF.GenerationSoftware,KiCad,Pcbnew,(5.1.9)-1*%
%TF.CreationDate,2021-04-04T23:23:37-07:00*%
%TF.ProjectId,esp8266_power,65737038-3236-4365-9f70-6f7765722e6b,rev?*%
%TF.SameCoordinates,Original*%
%TF.FileFunction,Legend,Top*%
%TF.FilePolarity,Positive*%
%FSLAX46Y46*%
G04 Gerber Fmt 4.6, Leading zero omitted, Abs format (unit mm)*
G04 Created by KiCad (PCBNEW (5.1.9)-1) date 2021-04-04 23:23:37*
%MOMM*%
%LPD*%
G01*
G04 APERTURE LIST*
%ADD10C,0.150000*%
%ADD11C,0.120000*%
G04 APERTURE END LIST*
D10*
X170522380Y-122769761D02*
X170427142Y-122817380D01*
X170236666Y-122817380D01*
X170141428Y-122769761D01*
X170093809Y-122674523D01*
X170093809Y-122293571D01*
X170141428Y-122198333D01*
X170236666Y-122150714D01*
X170427142Y-122150714D01*
X170522380Y-122198333D01*
X170570000Y-122293571D01*
X170570000Y-122388809D01*
X170093809Y-122484047D01*
X170950952Y-122769761D02*
X171046190Y-122817380D01*
X171236666Y-122817380D01*
X171331904Y-122769761D01*
X171379523Y-122674523D01*
X171379523Y-122626904D01*
X171331904Y-122531666D01*
X171236666Y-122484047D01*
X171093809Y-122484047D01*
X170998571Y-122436428D01*
X170950952Y-122341190D01*
X170950952Y-122293571D01*
X170998571Y-122198333D01*
X171093809Y-122150714D01*
X171236666Y-122150714D01*
X171331904Y-122198333D01*
X171808095Y-122150714D02*
X171808095Y-123150714D01*
X171808095Y-122198333D02*
X171903333Y-122150714D01*
X172093809Y-122150714D01*
X172189047Y-122198333D01*
X172236666Y-122245952D01*
X172284285Y-122341190D01*
X172284285Y-122626904D01*
X172236666Y-122722142D01*
X172189047Y-122769761D01*
X172093809Y-122817380D01*
X171903333Y-122817380D01*
X171808095Y-122769761D01*
X172855714Y-122245952D02*
X172760476Y-122198333D01*
X172712857Y-122150714D01*
X172665238Y-122055476D01*
X172665238Y-122007857D01*
X172712857Y-121912619D01*
X172760476Y-121865000D01*
X172855714Y-121817380D01*
X173046190Y-121817380D01*
X173141428Y-121865000D01*
X173189047Y-121912619D01*
X173236666Y-122007857D01*
X173236666Y-122055476D01*
X173189047Y-122150714D01*
X173141428Y-122198333D01*
X173046190Y-122245952D01*
X172855714Y-122245952D01*
X172760476Y-122293571D01*
X172712857Y-122341190D01*
X172665238Y-122436428D01*
X172665238Y-122626904D01*
X172712857Y-122722142D01*
X172760476Y-122769761D01*
X172855714Y-122817380D01*
X173046190Y-122817380D01*
X173141428Y-122769761D01*
X173189047Y-122722142D01*
X173236666Y-122626904D01*
X173236666Y-122436428D01*
X173189047Y-122341190D01*
X173141428Y-122293571D01*
X173046190Y-122245952D01*
X173617619Y-121912619D02*
X173665238Y-121865000D01*
X173760476Y-121817380D01*
X173998571Y-121817380D01*
X174093809Y-121865000D01*
X174141428Y-121912619D01*
X174189047Y-122007857D01*
X174189047Y-122103095D01*
X174141428Y-122245952D01*
X173570000Y-122817380D01*
X174189047Y-122817380D01*
X175046190Y-121817380D02*
X174855714Y-121817380D01*
X174760476Y-121865000D01*
X174712857Y-121912619D01*
X174617619Y-122055476D01*
X174570000Y-122245952D01*
X174570000Y-122626904D01*
X174617619Y-122722142D01*
X174665238Y-122769761D01*
X174760476Y-122817380D01*
X174950952Y-122817380D01*
X175046190Y-122769761D01*
X175093809Y-122722142D01*
X175141428Y-122626904D01*
X175141428Y-122388809D01*
X175093809Y-122293571D01*
X175046190Y-122245952D01*
X174950952Y-122198333D01*
X174760476Y-122198333D01*
X174665238Y-122245952D01*
X174617619Y-122293571D01*
X174570000Y-122388809D01*
X175998571Y-121817380D02*
X175808095Y-121817380D01*
X175712857Y-121865000D01*
X175665238Y-121912619D01*
X175570000Y-122055476D01*
X175522380Y-122245952D01*
X175522380Y-122626904D01*
X175570000Y-122722142D01*
X175617619Y-122769761D01*
X175712857Y-122817380D01*
X175903333Y-122817380D01*
X175998571Y-122769761D01*
X176046190Y-122722142D01*
X176093809Y-122626904D01*
X176093809Y-122388809D01*
X176046190Y-122293571D01*
X175998571Y-122245952D01*
X175903333Y-122198333D01*
X175712857Y-122198333D01*
X175617619Y-122245952D01*
X175570000Y-122293571D01*
X175522380Y-122388809D01*
X176522380Y-122436428D02*
X177284285Y-122436428D01*
X177760476Y-122150714D02*
X177760476Y-122817380D01*
X177760476Y-122245952D02*
X177808095Y-122198333D01*
X177903333Y-122150714D01*
X178046190Y-122150714D01*
X178141428Y-122198333D01*
X178189047Y-122293571D01*
X178189047Y-122817380D01*
X178808095Y-122817380D02*
X178712857Y-122769761D01*
X178665238Y-122722142D01*
X178617619Y-122626904D01*
X178617619Y-122341190D01*
X178665238Y-122245952D01*
X178712857Y-122198333D01*
X178808095Y-122150714D01*
X178950952Y-122150714D01*
X179046190Y-122198333D01*
X179093809Y-122245952D01*
X179141428Y-122341190D01*
X179141428Y-122626904D01*
X179093809Y-122722142D01*
X179046190Y-122769761D01*
X178950952Y-122817380D01*
X178808095Y-122817380D01*
X179474761Y-122150714D02*
X179665238Y-122817380D01*
X179855714Y-122341190D01*
X180046190Y-122817380D01*
X180236666Y-122150714D01*
X180617619Y-122150714D02*
X180617619Y-123150714D01*
X180617619Y-122198333D02*
X180712857Y-122150714D01*
X180903333Y-122150714D01*
X180998571Y-122198333D01*
X181046190Y-122245952D01*
X181093809Y-122341190D01*
X181093809Y-122626904D01*
X181046190Y-122722142D01*
X180998571Y-122769761D01*
X180903333Y-122817380D01*
X180712857Y-122817380D01*
X180617619Y-122769761D01*
X181665238Y-122817380D02*
X181570000Y-122769761D01*
X181522380Y-122674523D01*
X181522380Y-121817380D01*
X182474761Y-122817380D02*
X182474761Y-122293571D01*
X182427142Y-122198333D01*
X182331904Y-122150714D01*
X182141428Y-122150714D01*
X182046190Y-122198333D01*
X182474761Y-122769761D02*
X182379523Y-122817380D01*
X182141428Y-122817380D01*
X182046190Y-122769761D01*
X181998571Y-122674523D01*
X181998571Y-122579285D01*
X182046190Y-122484047D01*
X182141428Y-122436428D01*
X182379523Y-122436428D01*
X182474761Y-122388809D01*
X182855714Y-122150714D02*
X183093809Y-122817380D01*
X183331904Y-122150714D02*
X183093809Y-122817380D01*
X182998571Y-123055476D01*
X182950952Y-123103095D01*
X182855714Y-123150714D01*
X183712857Y-122817380D02*
X183712857Y-122150714D01*
X183712857Y-121817380D02*
X183665238Y-121865000D01*
X183712857Y-121912619D01*
X183760476Y-121865000D01*
X183712857Y-121817380D01*
X183712857Y-121912619D01*
X184189047Y-122150714D02*
X184189047Y-122817380D01*
X184189047Y-122245952D02*
X184236666Y-122198333D01*
X184331904Y-122150714D01*
X184474761Y-122150714D01*
X184570000Y-122198333D01*
X184617619Y-122293571D01*
X184617619Y-122817380D01*
X185522380Y-122150714D02*
X185522380Y-122960238D01*
X185474761Y-123055476D01*
X185427142Y-123103095D01*
X185331904Y-123150714D01*
X185189047Y-123150714D01*
X185093809Y-123103095D01*
X185522380Y-122769761D02*
X185427142Y-122817380D01*
X185236666Y-122817380D01*
X185141428Y-122769761D01*
X185093809Y-122722142D01*
X185046190Y-122626904D01*
X185046190Y-122341190D01*
X185093809Y-122245952D01*
X185141428Y-122198333D01*
X185236666Y-122150714D01*
X185427142Y-122150714D01*
X185522380Y-122198333D01*
X186665238Y-122150714D02*
X186903333Y-122817380D01*
X187141428Y-122150714D01*
X188046190Y-122817380D02*
X187474761Y-122817380D01*
X187760476Y-122817380D02*
X187760476Y-121817380D01*
X187665238Y-121960238D01*
X187570000Y-122055476D01*
X187474761Y-122103095D01*
X171093809Y-123800714D02*
X171331904Y-124467380D01*
X171570000Y-123800714D02*
X171331904Y-124467380D01*
X171236666Y-124705476D01*
X171189047Y-124753095D01*
X171093809Y-124800714D01*
X172379523Y-124467380D02*
X172379523Y-123943571D01*
X172331904Y-123848333D01*
X172236666Y-123800714D01*
X172046190Y-123800714D01*
X171950952Y-123848333D01*
X172379523Y-124419761D02*
X172284285Y-124467380D01*
X172046190Y-124467380D01*
X171950952Y-124419761D01*
X171903333Y-124324523D01*
X171903333Y-124229285D01*
X171950952Y-124134047D01*
X172046190Y-124086428D01*
X172284285Y-124086428D01*
X172379523Y-124038809D01*
X172855714Y-123800714D02*
X172855714Y-124467380D01*
X172855714Y-123895952D02*
X172903333Y-123848333D01*
X172998571Y-123800714D01*
X173141428Y-123800714D01*
X173236666Y-123848333D01*
X173284285Y-123943571D01*
X173284285Y-124467380D01*
X174189047Y-123800714D02*
X174189047Y-124610238D01*
X174141428Y-124705476D01*
X174093809Y-124753095D01*
X173998571Y-124800714D01*
X173855714Y-124800714D01*
X173760476Y-124753095D01*
X174189047Y-124419761D02*
X174093809Y-124467380D01*
X173903333Y-124467380D01*
X173808095Y-124419761D01*
X173760476Y-124372142D01*
X173712857Y-124276904D01*
X173712857Y-123991190D01*
X173760476Y-123895952D01*
X173808095Y-123848333D01*
X173903333Y-123800714D01*
X174093809Y-123800714D01*
X174189047Y-123848333D01*
X174808095Y-124467380D02*
X174712857Y-124419761D01*
X174665238Y-124324523D01*
X174665238Y-123467380D01*
X175617619Y-124467380D02*
X175617619Y-123943571D01*
X175570000Y-123848333D01*
X175474761Y-123800714D01*
X175284285Y-123800714D01*
X175189047Y-123848333D01*
X175617619Y-124419761D02*
X175522380Y-124467380D01*
X175284285Y-124467380D01*
X175189047Y-124419761D01*
X175141428Y-124324523D01*
X175141428Y-124229285D01*
X175189047Y-124134047D01*
X175284285Y-124086428D01*
X175522380Y-124086428D01*
X175617619Y-124038809D01*
X176093809Y-123800714D02*
X176093809Y-124467380D01*
X176093809Y-123895952D02*
X176141428Y-123848333D01*
X176236666Y-123800714D01*
X176379523Y-123800714D01*
X176474761Y-123848333D01*
X176522380Y-123943571D01*
X176522380Y-124467380D01*
X177427142Y-123800714D02*
X177427142Y-124610238D01*
X177379523Y-124705476D01*
X177331904Y-124753095D01*
X177236666Y-124800714D01*
X177093809Y-124800714D01*
X176998571Y-124753095D01*
X177427142Y-124419761D02*
X177331904Y-124467380D01*
X177141428Y-124467380D01*
X177046190Y-124419761D01*
X176998571Y-124372142D01*
X176950952Y-124276904D01*
X176950952Y-123991190D01*
X176998571Y-123895952D01*
X177046190Y-123848333D01*
X177141428Y-123800714D01*
X177331904Y-123800714D01*
X177427142Y-123848333D01*
X178665238Y-123800714D02*
X178665238Y-124800714D01*
X178665238Y-123848333D02*
X178760476Y-123800714D01*
X178950952Y-123800714D01*
X179046190Y-123848333D01*
X179093809Y-123895952D01*
X179141428Y-123991190D01*
X179141428Y-124276904D01*
X179093809Y-124372142D01*
X179046190Y-124419761D01*
X178950952Y-124467380D01*
X178760476Y-124467380D01*
X178665238Y-124419761D01*
X179570000Y-124467380D02*
X179570000Y-123800714D01*
X179570000Y-123991190D02*
X179617619Y-123895952D01*
X179665238Y-123848333D01*
X179760476Y-123800714D01*
X179855714Y-123800714D01*
X180331904Y-124467380D02*
X180236666Y-124419761D01*
X180189047Y-124372142D01*
X180141428Y-124276904D01*
X180141428Y-123991190D01*
X180189047Y-123895952D01*
X180236666Y-123848333D01*
X180331904Y-123800714D01*
X180474761Y-123800714D01*
X180570000Y-123848333D01*
X180617619Y-123895952D01*
X180665238Y-123991190D01*
X180665238Y-124276904D01*
X180617619Y-124372142D01*
X180570000Y-124419761D01*
X180474761Y-124467380D01*
X180331904Y-124467380D01*
X181522380Y-124467380D02*
X181522380Y-123467380D01*
X181522380Y-124419761D02*
X181427142Y-124467380D01*
X181236666Y-124467380D01*
X181141428Y-124419761D01*
X181093809Y-124372142D01*
X181046190Y-124276904D01*
X181046190Y-123991190D01*
X181093809Y-123895952D01*
X181141428Y-123848333D01*
X181236666Y-123800714D01*
X181427142Y-123800714D01*
X181522380Y-123848333D01*
X182427142Y-123800714D02*
X182427142Y-124467380D01*
X181998571Y-123800714D02*
X181998571Y-124324523D01*
X182046190Y-124419761D01*
X182141428Y-124467380D01*
X182284285Y-124467380D01*
X182379523Y-124419761D01*
X182427142Y-124372142D01*
X183331904Y-124419761D02*
X183236666Y-124467380D01*
X183046190Y-124467380D01*
X182950952Y-124419761D01*
X182903333Y-124372142D01*
X182855714Y-124276904D01*
X182855714Y-123991190D01*
X182903333Y-123895952D01*
X182950952Y-123848333D01*
X183046190Y-123800714D01*
X183236666Y-123800714D01*
X183331904Y-123848333D01*
X183617619Y-123800714D02*
X183998571Y-123800714D01*
X183760476Y-123467380D02*
X183760476Y-124324523D01*
X183808095Y-124419761D01*
X183903333Y-124467380D01*
X183998571Y-124467380D01*
X184331904Y-124467380D02*
X184331904Y-123800714D01*
X184331904Y-123467380D02*
X184284285Y-123515000D01*
X184331904Y-123562619D01*
X184379523Y-123515000D01*
X184331904Y-123467380D01*
X184331904Y-123562619D01*
X184950952Y-124467380D02*
X184855714Y-124419761D01*
X184808095Y-124372142D01*
X184760476Y-124276904D01*
X184760476Y-123991190D01*
X184808095Y-123895952D01*
X184855714Y-123848333D01*
X184950952Y-123800714D01*
X185093809Y-123800714D01*
X185189047Y-123848333D01*
X185236666Y-123895952D01*
X185284285Y-123991190D01*
X185284285Y-124276904D01*
X185236666Y-124372142D01*
X185189047Y-124419761D01*
X185093809Y-124467380D01*
X184950952Y-124467380D01*
X185712857Y-123800714D02*
X185712857Y-124467380D01*
X185712857Y-123895952D02*
X185760476Y-123848333D01*
X185855714Y-123800714D01*
X185998571Y-123800714D01*
X186093809Y-123848333D01*
X186141428Y-123943571D01*
X186141428Y-124467380D01*
X186570000Y-124419761D02*
X186665238Y-124467380D01*
X186855714Y-124467380D01*
X186950952Y-124419761D01*
X186998571Y-124324523D01*
X186998571Y-124276904D01*
X186950952Y-124181666D01*
X186855714Y-124134047D01*
X186712857Y-124134047D01*
X186617619Y-124086428D01*
X186570000Y-123991190D01*
X186570000Y-123943571D01*
X186617619Y-123848333D01*
X186712857Y-123800714D01*
X186855714Y-123800714D01*
X186950952Y-123848333D01*
%TO.C,U1*%
X160105001Y-128345001D02*
X149935001Y-128345001D01*
X151625001Y-87215001D02*
X140625001Y-87215001D01*
X151625001Y-80085001D02*
X151625001Y-87215001D01*
X140625001Y-87215001D02*
X140625001Y-80085001D01*
X142325001Y-129345001D02*
X142325001Y-123615001D01*
X142325001Y-123615001D02*
X149925001Y-123615001D01*
X149925001Y-123615001D02*
X149925001Y-129345001D01*
X149925001Y-129345001D02*
X142325001Y-129345001D01*
X161365001Y-81355001D02*
X161365001Y-127075001D01*
X130885001Y-81355001D02*
X130885001Y-127075001D01*
X142325001Y-128345001D02*
X132155001Y-128345001D01*
X160621052Y-125805001D02*
G75*
G03*
X160621052Y-125805001I-1796051J0D01*
G01*
X135221052Y-125805001D02*
G75*
G03*
X135221052Y-125805001I-1796051J0D01*
G01*
X135221052Y-82625001D02*
G75*
G03*
X135221052Y-82625001I-1796051J0D01*
G01*
X160621052Y-82625001D02*
G75*
G03*
X160621052Y-82625001I-1796051J0D01*
G01*
X160095001Y-80085001D02*
X132155001Y-80085001D01*
X132155001Y-80085001D02*
G75*
G03*
X130885001Y-81355001I0J-1270000D01*
G01*
X161365001Y-81355001D02*
G75*
G03*
X160095001Y-80085001I-1270000J0D01*
G01*
X160095001Y-128345001D02*
G75*
G03*
X161365001Y-127075001I0J1270000D01*
G01*
X130885001Y-127075001D02*
G75*
G03*
X132155001Y-128345001I1270000J0D01*
G01*
D11*
%TO.C,J1*%
X120590000Y-123250000D02*
X123250000Y-123250000D01*
X120590000Y-115570000D02*
X120590000Y-123250000D01*
X123250000Y-115570000D02*
X123250000Y-123250000D01*
X120590000Y-115570000D02*
X123250000Y-115570000D01*
X120590000Y-114300000D02*
X120590000Y-112970000D01*
X120590000Y-112970000D02*
X121920000Y-112970000D01*
%TO.C,J2*%
X175320000Y-116780000D02*
X175320000Y-118110000D01*
X173990000Y-116780000D02*
X175320000Y-116780000D01*
X172720000Y-116780000D02*
X172720000Y-119440000D01*
X172720000Y-119440000D02*
X165040000Y-119440000D01*
X172720000Y-116780000D02*
X165040000Y-116780000D01*
X165040000Y-116780000D02*
X165040000Y-119440000D01*
%TO.C,J3*%
X180400000Y-96460000D02*
X180400000Y-97790000D01*
X179070000Y-96460000D02*
X180400000Y-96460000D01*
X180400000Y-99060000D02*
X180400000Y-101660000D01*
X177800000Y-99060000D02*
X180400000Y-99060000D01*
X177800000Y-96460000D02*
X177800000Y-99060000D01*
X180400000Y-101660000D02*
X167580000Y-101660000D01*
X177800000Y-96460000D02*
X167580000Y-96460000D01*
X167580000Y-96460000D02*
X167580000Y-101660000D01*
%TO.C,U1*%
D10*
X145363096Y-103667381D02*
X145363096Y-104476905D01*
X145410715Y-104572143D01*
X145458334Y-104619762D01*
X145553572Y-104667381D01*
X145744048Y-104667381D01*
X145839286Y-104619762D01*
X145886905Y-104572143D01*
X145934524Y-104476905D01*
X145934524Y-103667381D01*
X146934524Y-104667381D02*
X146363096Y-104667381D01*
X146648810Y-104667381D02*
X146648810Y-103667381D01*
X146553572Y-103810239D01*
X146458334Y-103905477D01*
X146363096Y-103953096D01*
X144863096Y-126527381D02*
X144863096Y-127336905D01*
X144910715Y-127432143D01*
X144958334Y-127479762D01*
X145053572Y-127527381D01*
X145244048Y-127527381D01*
X145339286Y-127479762D01*
X145386905Y-127432143D01*
X145434524Y-127336905D01*
X145434524Y-126527381D01*
X145863096Y-127479762D02*
X146005953Y-127527381D01*
X146244048Y-127527381D01*
X146339286Y-127479762D01*
X146386905Y-127432143D01*
X146434524Y-127336905D01*
X146434524Y-127241667D01*
X146386905Y-127146429D01*
X146339286Y-127098810D01*
X146244048Y-127051191D01*
X146053572Y-127003572D01*
X145958334Y-126955953D01*
X145910715Y-126908334D01*
X145863096Y-126813096D01*
X145863096Y-126717858D01*
X145910715Y-126622620D01*
X145958334Y-126575001D01*
X146053572Y-126527381D01*
X146291667Y-126527381D01*
X146434524Y-126575001D01*
X147196429Y-127003572D02*
X147339286Y-127051191D01*
X147386905Y-127098810D01*
X147434524Y-127194048D01*
X147434524Y-127336905D01*
X147386905Y-127432143D01*
X147339286Y-127479762D01*
X147244048Y-127527381D01*
X146863096Y-127527381D01*
X146863096Y-126527381D01*
X147196429Y-126527381D01*
X147291667Y-126575001D01*
X147339286Y-126622620D01*
X147386905Y-126717858D01*
X147386905Y-126813096D01*
X147339286Y-126908334D01*
X147291667Y-126955953D01*
X147196429Y-127003572D01*
X146863096Y-127003572D01*
X142672620Y-84347381D02*
X142339286Y-83871191D01*
X142101191Y-84347381D02*
X142101191Y-83347381D01*
X142482143Y-83347381D01*
X142577381Y-83395001D01*
X142625001Y-83442620D01*
X142672620Y-83537858D01*
X142672620Y-83680715D01*
X142625001Y-83775953D01*
X142577381Y-83823572D01*
X142482143Y-83871191D01*
X142101191Y-83871191D01*
X143434524Y-83823572D02*
X143101191Y-83823572D01*
X143101191Y-84347381D02*
X143101191Y-83347381D01*
X143577381Y-83347381D01*
X144672620Y-84061667D02*
X145148810Y-84061667D01*
X144577381Y-84347381D02*
X144910715Y-83347381D01*
X145244048Y-84347381D01*
X145577381Y-83680715D02*
X145577381Y-84347381D01*
X145577381Y-83775953D02*
X145625001Y-83728334D01*
X145720239Y-83680715D01*
X145863096Y-83680715D01*
X145958334Y-83728334D01*
X146005953Y-83823572D01*
X146005953Y-84347381D01*
X146339286Y-83680715D02*
X146720239Y-83680715D01*
X146482143Y-83347381D02*
X146482143Y-84204524D01*
X146529762Y-84299762D01*
X146625001Y-84347381D01*
X146720239Y-84347381D01*
X147434524Y-84299762D02*
X147339286Y-84347381D01*
X147148810Y-84347381D01*
X147053572Y-84299762D01*
X147005953Y-84204524D01*
X147005953Y-83823572D01*
X147053572Y-83728334D01*
X147148810Y-83680715D01*
X147339286Y-83680715D01*
X147434524Y-83728334D01*
X147482143Y-83823572D01*
X147482143Y-83918810D01*
X147005953Y-84014048D01*
X147910715Y-83680715D02*
X147910715Y-84347381D01*
X147910715Y-83775953D02*
X147958334Y-83728334D01*
X148053572Y-83680715D01*
X148196429Y-83680715D01*
X148291667Y-83728334D01*
X148339286Y-83823572D01*
X148339286Y-84347381D01*
X148815477Y-83680715D02*
X148815477Y-84347381D01*
X148815477Y-83775953D02*
X148863096Y-83728334D01*
X148958334Y-83680715D01*
X149101191Y-83680715D01*
X149196429Y-83728334D01*
X149244048Y-83823572D01*
X149244048Y-84347381D01*
X150148810Y-84347381D02*
X150148810Y-83823572D01*
X150101191Y-83728334D01*
X150005953Y-83680715D01*
X149815477Y-83680715D01*
X149720239Y-83728334D01*
X150148810Y-84299762D02*
X150053572Y-84347381D01*
X149815477Y-84347381D01*
X149720239Y-84299762D01*
X149672620Y-84204524D01*
X149672620Y-84109286D01*
X149720239Y-84014048D01*
X149815477Y-83966429D01*
X150053572Y-83966429D01*
X150148810Y-83918810D01*
X133599762Y-121447381D02*
X133933096Y-122447381D01*
X134266429Y-121447381D01*
X134599762Y-122447381D02*
X134599762Y-121447381D01*
X135075953Y-122447381D02*
X135075953Y-121447381D01*
X135647381Y-122447381D01*
X135647381Y-121447381D01*
X134956905Y-118955001D02*
X134861667Y-118907381D01*
X134718810Y-118907381D01*
X134575953Y-118955001D01*
X134480715Y-119050239D01*
X134433096Y-119145477D01*
X134385477Y-119335953D01*
X134385477Y-119478810D01*
X134433096Y-119669286D01*
X134480715Y-119764524D01*
X134575953Y-119859762D01*
X134718810Y-119907381D01*
X134814048Y-119907381D01*
X134956905Y-119859762D01*
X135004524Y-119812143D01*
X135004524Y-119478810D01*
X134814048Y-119478810D01*
X134147381Y-117367381D02*
X133814048Y-116891191D01*
X133575953Y-117367381D02*
X133575953Y-116367381D01*
X133956905Y-116367381D01*
X134052143Y-116415001D01*
X134099762Y-116462620D01*
X134147381Y-116557858D01*
X134147381Y-116700715D01*
X134099762Y-116795953D01*
X134052143Y-116843572D01*
X133956905Y-116891191D01*
X133575953Y-116891191D01*
X134528334Y-117319762D02*
X134671191Y-117367381D01*
X134909286Y-117367381D01*
X135004524Y-117319762D01*
X135052143Y-117272143D01*
X135099762Y-117176905D01*
X135099762Y-117081667D01*
X135052143Y-116986429D01*
X135004524Y-116938810D01*
X134909286Y-116891191D01*
X134718810Y-116843572D01*
X134623572Y-116795953D01*
X134575953Y-116748334D01*
X134528334Y-116653096D01*
X134528334Y-116557858D01*
X134575953Y-116462620D01*
X134623572Y-116415001D01*
X134718810Y-116367381D01*
X134956905Y-116367381D01*
X135099762Y-116415001D01*
X135385477Y-116367381D02*
X135956905Y-116367381D01*
X135671191Y-117367381D02*
X135671191Y-116367381D01*
X133956905Y-114303572D02*
X134290239Y-114303572D01*
X134433096Y-114827381D02*
X133956905Y-114827381D01*
X133956905Y-113827381D01*
X134433096Y-113827381D01*
X134861667Y-114827381D02*
X134861667Y-113827381D01*
X135433096Y-114827381D01*
X135433096Y-113827381D01*
X133933096Y-111287381D02*
X134552143Y-111287381D01*
X134218810Y-111668334D01*
X134361667Y-111668334D01*
X134456905Y-111715953D01*
X134504524Y-111763572D01*
X134552143Y-111858810D01*
X134552143Y-112096905D01*
X134504524Y-112192143D01*
X134456905Y-112239762D01*
X134361667Y-112287381D01*
X134075953Y-112287381D01*
X133980715Y-112239762D01*
X133933096Y-112192143D01*
X134837858Y-111287381D02*
X135171191Y-112287381D01*
X135504524Y-111287381D01*
X134956905Y-108795001D02*
X134861667Y-108747381D01*
X134718810Y-108747381D01*
X134575953Y-108795001D01*
X134480715Y-108890239D01*
X134433096Y-108985477D01*
X134385477Y-109175953D01*
X134385477Y-109318810D01*
X134433096Y-109509286D01*
X134480715Y-109604524D01*
X134575953Y-109699762D01*
X134718810Y-109747381D01*
X134814048Y-109747381D01*
X134956905Y-109699762D01*
X135004524Y-109652143D01*
X135004524Y-109318810D01*
X134814048Y-109318810D01*
X133909286Y-107159762D02*
X134052143Y-107207381D01*
X134290239Y-107207381D01*
X134385477Y-107159762D01*
X134433096Y-107112143D01*
X134480715Y-107016905D01*
X134480715Y-106921667D01*
X134433096Y-106826429D01*
X134385477Y-106778810D01*
X134290239Y-106731191D01*
X134099762Y-106683572D01*
X134004524Y-106635953D01*
X133956905Y-106588334D01*
X133909286Y-106493096D01*
X133909286Y-106397858D01*
X133956905Y-106302620D01*
X134004524Y-106255001D01*
X134099762Y-106207381D01*
X134337858Y-106207381D01*
X134480715Y-106255001D01*
X134909286Y-107207381D02*
X134909286Y-106207381D01*
X135480715Y-107207381D02*
X135052143Y-106635953D01*
X135480715Y-106207381D02*
X134909286Y-106778810D01*
X133885477Y-104619762D02*
X134028334Y-104667381D01*
X134266429Y-104667381D01*
X134361667Y-104619762D01*
X134409286Y-104572143D01*
X134456905Y-104476905D01*
X134456905Y-104381667D01*
X134409286Y-104286429D01*
X134361667Y-104238810D01*
X134266429Y-104191191D01*
X134075953Y-104143572D01*
X133980715Y-104095953D01*
X133933096Y-104048334D01*
X133885477Y-103953096D01*
X133885477Y-103857858D01*
X133933096Y-103762620D01*
X133980715Y-103715001D01*
X134075953Y-103667381D01*
X134314048Y-103667381D01*
X134456905Y-103715001D01*
X135075953Y-103667381D02*
X135266429Y-103667381D01*
X135361667Y-103715001D01*
X135456905Y-103810239D01*
X135504524Y-104000715D01*
X135504524Y-104334048D01*
X135456905Y-104524524D01*
X135361667Y-104619762D01*
X135266429Y-104667381D01*
X135075953Y-104667381D01*
X134980715Y-104619762D01*
X134885477Y-104524524D01*
X134837858Y-104334048D01*
X134837858Y-104000715D01*
X134885477Y-103810239D01*
X134980715Y-103715001D01*
X135075953Y-103667381D01*
X133909286Y-102079762D02*
X134052143Y-102127381D01*
X134290239Y-102127381D01*
X134385477Y-102079762D01*
X134433096Y-102032143D01*
X134480715Y-101936905D01*
X134480715Y-101841667D01*
X134433096Y-101746429D01*
X134385477Y-101698810D01*
X134290239Y-101651191D01*
X134099762Y-101603572D01*
X134004524Y-101555953D01*
X133956905Y-101508334D01*
X133909286Y-101413096D01*
X133909286Y-101317858D01*
X133956905Y-101222620D01*
X134004524Y-101175001D01*
X134099762Y-101127381D01*
X134337858Y-101127381D01*
X134480715Y-101175001D01*
X135480715Y-102032143D02*
X135433096Y-102079762D01*
X135290239Y-102127381D01*
X135195001Y-102127381D01*
X135052143Y-102079762D01*
X134956905Y-101984524D01*
X134909286Y-101889286D01*
X134861667Y-101698810D01*
X134861667Y-101555953D01*
X134909286Y-101365477D01*
X134956905Y-101270239D01*
X135052143Y-101175001D01*
X135195001Y-101127381D01*
X135290239Y-101127381D01*
X135433096Y-101175001D01*
X135480715Y-101222620D01*
X133933096Y-99539762D02*
X134075953Y-99587381D01*
X134314048Y-99587381D01*
X134409286Y-99539762D01*
X134456905Y-99492143D01*
X134504524Y-99396905D01*
X134504524Y-99301667D01*
X134456905Y-99206429D01*
X134409286Y-99158810D01*
X134314048Y-99111191D01*
X134123572Y-99063572D01*
X134028334Y-99015953D01*
X133980715Y-98968334D01*
X133933096Y-98873096D01*
X133933096Y-98777858D01*
X133980715Y-98682620D01*
X134028334Y-98635001D01*
X134123572Y-98587381D01*
X134361667Y-98587381D01*
X134504524Y-98635001D01*
X135456905Y-99587381D02*
X134885477Y-99587381D01*
X135171191Y-99587381D02*
X135171191Y-98587381D01*
X135075953Y-98730239D01*
X134980715Y-98825477D01*
X134885477Y-98873096D01*
X133933096Y-96999762D02*
X134075953Y-97047381D01*
X134314048Y-97047381D01*
X134409286Y-96999762D01*
X134456905Y-96952143D01*
X134504524Y-96856905D01*
X134504524Y-96761667D01*
X134456905Y-96666429D01*
X134409286Y-96618810D01*
X134314048Y-96571191D01*
X134123572Y-96523572D01*
X134028334Y-96475953D01*
X133980715Y-96428334D01*
X133933096Y-96333096D01*
X133933096Y-96237858D01*
X133980715Y-96142620D01*
X134028334Y-96095001D01*
X134123572Y-96047381D01*
X134361667Y-96047381D01*
X134504524Y-96095001D01*
X134885477Y-96142620D02*
X134933096Y-96095001D01*
X135028334Y-96047381D01*
X135266429Y-96047381D01*
X135361667Y-96095001D01*
X135409286Y-96142620D01*
X135456905Y-96237858D01*
X135456905Y-96333096D01*
X135409286Y-96475953D01*
X134837858Y-97047381D01*
X135456905Y-97047381D01*
X133933096Y-94459762D02*
X134075953Y-94507381D01*
X134314048Y-94507381D01*
X134409286Y-94459762D01*
X134456905Y-94412143D01*
X134504524Y-94316905D01*
X134504524Y-94221667D01*
X134456905Y-94126429D01*
X134409286Y-94078810D01*
X134314048Y-94031191D01*
X134123572Y-93983572D01*
X134028334Y-93935953D01*
X133980715Y-93888334D01*
X133933096Y-93793096D01*
X133933096Y-93697858D01*
X133980715Y-93602620D01*
X134028334Y-93555001D01*
X134123572Y-93507381D01*
X134361667Y-93507381D01*
X134504524Y-93555001D01*
X134837858Y-93507381D02*
X135456905Y-93507381D01*
X135123572Y-93888334D01*
X135266429Y-93888334D01*
X135361667Y-93935953D01*
X135409286Y-93983572D01*
X135456905Y-94078810D01*
X135456905Y-94316905D01*
X135409286Y-94412143D01*
X135361667Y-94459762D01*
X135266429Y-94507381D01*
X134980715Y-94507381D01*
X134885477Y-94459762D01*
X134837858Y-94412143D01*
X133837858Y-90967381D02*
X134171191Y-91967381D01*
X134504524Y-90967381D01*
X134837858Y-90967381D02*
X134837858Y-91776905D01*
X134885477Y-91872143D01*
X134933096Y-91919762D01*
X135028334Y-91967381D01*
X135218810Y-91967381D01*
X135314048Y-91919762D01*
X135361667Y-91872143D01*
X135409286Y-91776905D01*
X135409286Y-90967381D01*
X134956905Y-88475001D02*
X134861667Y-88427381D01*
X134718810Y-88427381D01*
X134575953Y-88475001D01*
X134480715Y-88570239D01*
X134433096Y-88665477D01*
X134385477Y-88855953D01*
X134385477Y-88998810D01*
X134433096Y-89189286D01*
X134480715Y-89284524D01*
X134575953Y-89379762D01*
X134718810Y-89427381D01*
X134814048Y-89427381D01*
X134956905Y-89379762D01*
X135004524Y-89332143D01*
X135004524Y-88998810D01*
X134814048Y-88998810D01*
X133980715Y-86601667D02*
X134456905Y-86601667D01*
X133885477Y-86887381D02*
X134218810Y-85887381D01*
X134552143Y-86887381D01*
X135075953Y-85887381D02*
X135171191Y-85887381D01*
X135266429Y-85935001D01*
X135314048Y-85982620D01*
X135361667Y-86077858D01*
X135409286Y-86268334D01*
X135409286Y-86506429D01*
X135361667Y-86696905D01*
X135314048Y-86792143D01*
X135266429Y-86839762D01*
X135171191Y-86887381D01*
X135075953Y-86887381D01*
X134980715Y-86839762D01*
X134933096Y-86792143D01*
X134885477Y-86696905D01*
X134837858Y-86506429D01*
X134837858Y-86268334D01*
X134885477Y-86077858D01*
X134933096Y-85982620D01*
X134980715Y-85935001D01*
X135075953Y-85887381D01*
X156793096Y-121447381D02*
X157412143Y-121447381D01*
X157078810Y-121828334D01*
X157221667Y-121828334D01*
X157316905Y-121875953D01*
X157364524Y-121923572D01*
X157412143Y-122018810D01*
X157412143Y-122256905D01*
X157364524Y-122352143D01*
X157316905Y-122399762D01*
X157221667Y-122447381D01*
X156935953Y-122447381D01*
X156840715Y-122399762D01*
X156793096Y-122352143D01*
X157697858Y-121447381D02*
X158031191Y-122447381D01*
X158364524Y-121447381D01*
X157816905Y-118955001D02*
X157721667Y-118907381D01*
X157578810Y-118907381D01*
X157435953Y-118955001D01*
X157340715Y-119050239D01*
X157293096Y-119145477D01*
X157245477Y-119335953D01*
X157245477Y-119478810D01*
X157293096Y-119669286D01*
X157340715Y-119764524D01*
X157435953Y-119859762D01*
X157578810Y-119907381D01*
X157674048Y-119907381D01*
X157816905Y-119859762D01*
X157864524Y-119812143D01*
X157864524Y-119478810D01*
X157674048Y-119478810D01*
X156793096Y-116367381D02*
X157364524Y-116367381D01*
X157078810Y-117367381D02*
X157078810Y-116367381D01*
X157602620Y-116367381D02*
X158269286Y-117367381D01*
X158269286Y-116367381D02*
X157602620Y-117367381D01*
X157388334Y-114827381D02*
X157055001Y-114351191D01*
X156816905Y-114827381D02*
X156816905Y-113827381D01*
X157197858Y-113827381D01*
X157293096Y-113875001D01*
X157340715Y-113922620D01*
X157388334Y-114017858D01*
X157388334Y-114160715D01*
X157340715Y-114255953D01*
X157293096Y-114303572D01*
X157197858Y-114351191D01*
X156816905Y-114351191D01*
X157721667Y-113827381D02*
X158388334Y-114827381D01*
X158388334Y-113827381D02*
X157721667Y-114827381D01*
X156816905Y-112287381D02*
X156816905Y-111287381D01*
X157055001Y-111287381D01*
X157197858Y-111335001D01*
X157293096Y-111430239D01*
X157340715Y-111525477D01*
X157388334Y-111715953D01*
X157388334Y-111858810D01*
X157340715Y-112049286D01*
X157293096Y-112144524D01*
X157197858Y-112239762D01*
X157055001Y-112287381D01*
X156816905Y-112287381D01*
X157959762Y-111715953D02*
X157864524Y-111668334D01*
X157816905Y-111620715D01*
X157769286Y-111525477D01*
X157769286Y-111477858D01*
X157816905Y-111382620D01*
X157864524Y-111335001D01*
X157959762Y-111287381D01*
X158150239Y-111287381D01*
X158245477Y-111335001D01*
X158293096Y-111382620D01*
X158340715Y-111477858D01*
X158340715Y-111525477D01*
X158293096Y-111620715D01*
X158245477Y-111668334D01*
X158150239Y-111715953D01*
X157959762Y-111715953D01*
X157864524Y-111763572D01*
X157816905Y-111811191D01*
X157769286Y-111906429D01*
X157769286Y-112096905D01*
X157816905Y-112192143D01*
X157864524Y-112239762D01*
X157959762Y-112287381D01*
X158150239Y-112287381D01*
X158245477Y-112239762D01*
X158293096Y-112192143D01*
X158340715Y-112096905D01*
X158340715Y-111906429D01*
X158293096Y-111811191D01*
X158245477Y-111763572D01*
X158150239Y-111715953D01*
X156816905Y-109747381D02*
X156816905Y-108747381D01*
X157055001Y-108747381D01*
X157197858Y-108795001D01*
X157293096Y-108890239D01*
X157340715Y-108985477D01*
X157388334Y-109175953D01*
X157388334Y-109318810D01*
X157340715Y-109509286D01*
X157293096Y-109604524D01*
X157197858Y-109699762D01*
X157055001Y-109747381D01*
X156816905Y-109747381D01*
X157721667Y-108747381D02*
X158388334Y-108747381D01*
X157959762Y-109747381D01*
X156816905Y-107207381D02*
X156816905Y-106207381D01*
X157055001Y-106207381D01*
X157197858Y-106255001D01*
X157293096Y-106350239D01*
X157340715Y-106445477D01*
X157388334Y-106635953D01*
X157388334Y-106778810D01*
X157340715Y-106969286D01*
X157293096Y-107064524D01*
X157197858Y-107159762D01*
X157055001Y-107207381D01*
X156816905Y-107207381D01*
X158245477Y-106207381D02*
X158055001Y-106207381D01*
X157959762Y-106255001D01*
X157912143Y-106302620D01*
X157816905Y-106445477D01*
X157769286Y-106635953D01*
X157769286Y-107016905D01*
X157816905Y-107112143D01*
X157864524Y-107159762D01*
X157959762Y-107207381D01*
X158150239Y-107207381D01*
X158245477Y-107159762D01*
X158293096Y-107112143D01*
X158340715Y-107016905D01*
X158340715Y-106778810D01*
X158293096Y-106683572D01*
X158245477Y-106635953D01*
X158150239Y-106588334D01*
X157959762Y-106588334D01*
X157864524Y-106635953D01*
X157816905Y-106683572D01*
X157769286Y-106778810D01*
X156816905Y-104667381D02*
X156816905Y-103667381D01*
X157055001Y-103667381D01*
X157197858Y-103715001D01*
X157293096Y-103810239D01*
X157340715Y-103905477D01*
X157388334Y-104095953D01*
X157388334Y-104238810D01*
X157340715Y-104429286D01*
X157293096Y-104524524D01*
X157197858Y-104619762D01*
X157055001Y-104667381D01*
X156816905Y-104667381D01*
X158293096Y-103667381D02*
X157816905Y-103667381D01*
X157769286Y-104143572D01*
X157816905Y-104095953D01*
X157912143Y-104048334D01*
X158150239Y-104048334D01*
X158245477Y-104095953D01*
X158293096Y-104143572D01*
X158340715Y-104238810D01*
X158340715Y-104476905D01*
X158293096Y-104572143D01*
X158245477Y-104619762D01*
X158150239Y-104667381D01*
X157912143Y-104667381D01*
X157816905Y-104619762D01*
X157769286Y-104572143D01*
X157816905Y-101175001D02*
X157721667Y-101127381D01*
X157578810Y-101127381D01*
X157435953Y-101175001D01*
X157340715Y-101270239D01*
X157293096Y-101365477D01*
X157245477Y-101555953D01*
X157245477Y-101698810D01*
X157293096Y-101889286D01*
X157340715Y-101984524D01*
X157435953Y-102079762D01*
X157578810Y-102127381D01*
X157674048Y-102127381D01*
X157816905Y-102079762D01*
X157864524Y-102032143D01*
X157864524Y-101698810D01*
X157674048Y-101698810D01*
X156793096Y-98587381D02*
X157412143Y-98587381D01*
X157078810Y-98968334D01*
X157221667Y-98968334D01*
X157316905Y-99015953D01*
X157364524Y-99063572D01*
X157412143Y-99158810D01*
X157412143Y-99396905D01*
X157364524Y-99492143D01*
X157316905Y-99539762D01*
X157221667Y-99587381D01*
X156935953Y-99587381D01*
X156840715Y-99539762D01*
X156793096Y-99492143D01*
X157697858Y-98587381D02*
X158031191Y-99587381D01*
X158364524Y-98587381D01*
X156816905Y-97047381D02*
X156816905Y-96047381D01*
X157055001Y-96047381D01*
X157197858Y-96095001D01*
X157293096Y-96190239D01*
X157340715Y-96285477D01*
X157388334Y-96475953D01*
X157388334Y-96618810D01*
X157340715Y-96809286D01*
X157293096Y-96904524D01*
X157197858Y-96999762D01*
X157055001Y-97047381D01*
X156816905Y-97047381D01*
X158245477Y-96380715D02*
X158245477Y-97047381D01*
X158007381Y-95999762D02*
X157769286Y-96714048D01*
X158388334Y-96714048D01*
X156816905Y-94507381D02*
X156816905Y-93507381D01*
X157055001Y-93507381D01*
X157197858Y-93555001D01*
X157293096Y-93650239D01*
X157340715Y-93745477D01*
X157388334Y-93935953D01*
X157388334Y-94078810D01*
X157340715Y-94269286D01*
X157293096Y-94364524D01*
X157197858Y-94459762D01*
X157055001Y-94507381D01*
X156816905Y-94507381D01*
X157721667Y-93507381D02*
X158340715Y-93507381D01*
X158007381Y-93888334D01*
X158150239Y-93888334D01*
X158245477Y-93935953D01*
X158293096Y-93983572D01*
X158340715Y-94078810D01*
X158340715Y-94316905D01*
X158293096Y-94412143D01*
X158245477Y-94459762D01*
X158150239Y-94507381D01*
X157864524Y-94507381D01*
X157769286Y-94459762D01*
X157721667Y-94412143D01*
X156816905Y-91967381D02*
X156816905Y-90967381D01*
X157055001Y-90967381D01*
X157197858Y-91015001D01*
X157293096Y-91110239D01*
X157340715Y-91205477D01*
X157388334Y-91395953D01*
X157388334Y-91538810D01*
X157340715Y-91729286D01*
X157293096Y-91824524D01*
X157197858Y-91919762D01*
X157055001Y-91967381D01*
X156816905Y-91967381D01*
X157769286Y-91062620D02*
X157816905Y-91015001D01*
X157912143Y-90967381D01*
X158150239Y-90967381D01*
X158245477Y-91015001D01*
X158293096Y-91062620D01*
X158340715Y-91157858D01*
X158340715Y-91253096D01*
X158293096Y-91395953D01*
X157721667Y-91967381D01*
X158340715Y-91967381D01*
X156816905Y-89427381D02*
X156816905Y-88427381D01*
X157055001Y-88427381D01*
X157197858Y-88475001D01*
X157293096Y-88570239D01*
X157340715Y-88665477D01*
X157388334Y-88855953D01*
X157388334Y-88998810D01*
X157340715Y-89189286D01*
X157293096Y-89284524D01*
X157197858Y-89379762D01*
X157055001Y-89427381D01*
X156816905Y-89427381D01*
X158340715Y-89427381D02*
X157769286Y-89427381D01*
X158055001Y-89427381D02*
X158055001Y-88427381D01*
X157959762Y-88570239D01*
X157864524Y-88665477D01*
X157769286Y-88713096D01*
X156816905Y-86887381D02*
X156816905Y-85887381D01*
X157055001Y-85887381D01*
X157197858Y-85935001D01*
X157293096Y-86030239D01*
X157340715Y-86125477D01*
X157388334Y-86315953D01*
X157388334Y-86458810D01*
X157340715Y-86649286D01*
X157293096Y-86744524D01*
X157197858Y-86839762D01*
X157055001Y-86887381D01*
X156816905Y-86887381D01*
X158007381Y-85887381D02*
X158102620Y-85887381D01*
X158197858Y-85935001D01*
X158245477Y-85982620D01*
X158293096Y-86077858D01*
X158340715Y-86268334D01*
X158340715Y-86506429D01*
X158293096Y-86696905D01*
X158245477Y-86792143D01*
X158197858Y-86839762D01*
X158102620Y-86887381D01*
X158007381Y-86887381D01*
X157912143Y-86839762D01*
X157864524Y-86792143D01*
X157816905Y-86696905D01*
X157769286Y-86506429D01*
X157769286Y-86268334D01*
X157816905Y-86077858D01*
X157864524Y-85982620D01*
X157912143Y-85935001D01*
X158007381Y-85887381D01*
%TO.C,J1*%
X121586666Y-111422380D02*
X121586666Y-112136666D01*
X121539047Y-112279523D01*
X121443809Y-112374761D01*
X121300952Y-112422380D01*
X121205714Y-112422380D01*
X122586666Y-112422380D02*
X122015238Y-112422380D01*
X122300952Y-112422380D02*
X122300952Y-111422380D01*
X122205714Y-111565238D01*
X122110476Y-111660476D01*
X122015238Y-111708095D01*
%TO.C,J2*%
X175772380Y-118443333D02*
X176486666Y-118443333D01*
X176629523Y-118490952D01*
X176724761Y-118586190D01*
X176772380Y-118729047D01*
X176772380Y-118824285D01*
X175867619Y-118014761D02*
X175820000Y-117967142D01*
X175772380Y-117871904D01*
X175772380Y-117633809D01*
X175820000Y-117538571D01*
X175867619Y-117490952D01*
X175962857Y-117443333D01*
X176058095Y-117443333D01*
X176200952Y-117490952D01*
X176772380Y-118062380D01*
X176772380Y-117443333D01*
%TO.C,J3*%
X180852380Y-99393333D02*
X181566666Y-99393333D01*
X181709523Y-99440952D01*
X181804761Y-99536190D01*
X181852380Y-99679047D01*
X181852380Y-99774285D01*
X180852380Y-99012380D02*
X180852380Y-98393333D01*
X181233333Y-98726666D01*
X181233333Y-98583809D01*
X181280952Y-98488571D01*
X181328571Y-98440952D01*
X181423809Y-98393333D01*
X181661904Y-98393333D01*
X181757142Y-98440952D01*
X181804761Y-98488571D01*
X181852380Y-98583809D01*
X181852380Y-98869523D01*
X181804761Y-98964761D01*
X181757142Y-99012380D01*
%TD*%
M02*
