M48
; DRILL file {KiCad (5.1.9)-1} date 04/04/21 23:23:47
; FORMAT={-:-/ absolute / inch / decimal}
; #@! TF.CreationDate,2021-04-04T23:23:47-07:00
; #@! TF.GenerationSoftware,Kicad,Pcbnew,(5.1.9)-1
FMAT,2
INCH
T1C0.0300
T2C0.0394
%
G90
G05
T1
X5.203Y-3.403
X5.203Y-3.503
X5.203Y-3.603
X5.203Y-3.703
X5.203Y-3.803
X5.203Y-3.903
X5.203Y-4.003
X5.203Y-4.103
X5.203Y-4.203
X5.203Y-4.303
X5.203Y-4.403
X5.203Y-4.503
X5.203Y-4.603
X5.203Y-4.703
X5.203Y-4.803
X6.303Y-3.403
X6.303Y-3.503
X6.303Y-3.603
X6.303Y-3.703
X6.303Y-3.803
X6.303Y-3.903
X6.303Y-4.003
X6.303Y-4.103
X6.303Y-4.203
X6.303Y-4.303
X6.303Y-4.403
X6.303Y-4.503
X6.303Y-4.603
X6.303Y-4.703
X6.303Y-4.803
T2
X4.8Y-4.5
X4.8Y-4.6
X4.8Y-4.7
X4.8Y-4.8
X6.55Y-4.65
X6.65Y-3.85
X6.65Y-3.95
X6.65Y-4.65
X6.75Y-3.85
X6.75Y-3.95
X6.75Y-4.65
X6.85Y-3.85
X6.85Y-3.95
X6.85Y-4.65
X6.95Y-3.85
X6.95Y-3.95
X7.05Y-3.85
X7.05Y-3.95
T0
M30
