%TF.GenerationSoftware,KiCad,Pcbnew,(5.1.9)-1*%
%TF.CreationDate,2021-04-04T23:23:37-07:00*%
%TF.ProjectId,esp8266_power,65737038-3236-4365-9f70-6f7765722e6b,rev?*%
%TF.SameCoordinates,Original*%
%TF.FileFunction,Copper,L1,Top*%
%TF.FilePolarity,Positive*%
%FSLAX46Y46*%
G04 Gerber Fmt 4.6, Leading zero omitted, Abs format (unit mm)*
G04 Created by KiCad (PCBNEW (5.1.9)-1) date 2021-04-04 23:23:37*
%MOMM*%
%LPD*%
G01*
G04 APERTURE LIST*
%TA.AperFunction,ComponentPad*%
%ADD10C,1.524000*%
%TD*%
%TA.AperFunction,ComponentPad*%
%ADD11R,1.700000X1.700000*%
%TD*%
%TA.AperFunction,ComponentPad*%
%ADD12O,1.700000X1.700000*%
%TD*%
%TA.AperFunction,Conductor*%
%ADD13C,0.250000*%
%TD*%
G04 APERTURE END LIST*
D10*
%TO.P,U1,1*%
%TO.N,N/C*%
X132155001Y-86435001D03*
%TO.P,U1,2*%
X132155001Y-88975001D03*
%TO.P,U1,3*%
X132155001Y-91515001D03*
%TO.P,U1,4*%
X132155001Y-94055001D03*
%TO.P,U1,5*%
X132155001Y-96595001D03*
%TO.P,U1,6*%
X132155001Y-99135001D03*
%TO.P,U1,7*%
X132155001Y-101675001D03*
%TO.P,U1,8*%
X132155001Y-104215001D03*
%TO.P,U1,9*%
X132155001Y-106755001D03*
%TO.P,U1,10*%
X132155001Y-109295001D03*
%TO.P,U1,11*%
X132155001Y-111835001D03*
%TO.P,U1,12*%
X132155001Y-114375001D03*
%TO.P,U1,13*%
X132155001Y-116915001D03*
%TO.P,U1,14*%
%TO.N,GND*%
X132155001Y-119455001D03*
%TO.P,U1,15*%
%TO.N,+5V*%
X132155001Y-121995001D03*
%TO.P,U1,16*%
%TO.N,N/C*%
X160095001Y-121995001D03*
%TO.P,U1,17*%
X160095001Y-119455001D03*
%TO.P,U1,18*%
%TO.N,/SDA*%
X160095001Y-116915001D03*
%TO.P,U1,19*%
%TO.N,/SCL*%
X160095001Y-114375001D03*
%TO.P,U1,20*%
%TO.N,/C*%
X160095001Y-111835001D03*
%TO.P,U1,21*%
%TO.N,/R1*%
X160095001Y-109295001D03*
%TO.P,U1,22*%
%TO.N,/D*%
X160095001Y-106755001D03*
%TO.P,U1,23*%
%TO.N,/CLK*%
X160095001Y-104215001D03*
%TO.P,U1,24*%
%TO.N,N/C*%
X160095001Y-101675001D03*
%TO.P,U1,25*%
X160095001Y-99135001D03*
%TO.P,U1,26*%
%TO.N,/OE*%
X160095001Y-96595001D03*
%TO.P,U1,27*%
%TO.N,/E*%
X160095001Y-94055001D03*
%TO.P,U1,28*%
%TO.N,/B*%
X160095001Y-91515001D03*
%TO.P,U1,29*%
%TO.N,/A*%
X160095001Y-88975001D03*
%TO.P,U1,30*%
%TO.N,/LAT*%
X160095001Y-86435001D03*
%TD*%
D11*
%TO.P,J1,1*%
%TO.N,GND*%
X121920000Y-114300000D03*
D12*
%TO.P,J1,2*%
X121920000Y-116840000D03*
%TO.P,J1,3*%
%TO.N,+5V*%
X121920000Y-119380000D03*
%TO.P,J1,4*%
X121920000Y-121920000D03*
%TD*%
%TO.P,J2,4*%
%TO.N,/SCL*%
X166370000Y-118110000D03*
%TO.P,J2,3*%
%TO.N,/SDA*%
X168910000Y-118110000D03*
%TO.P,J2,2*%
%TO.N,+5V*%
X171450000Y-118110000D03*
D11*
%TO.P,J2,1*%
%TO.N,GND*%
X173990000Y-118110000D03*
%TD*%
%TO.P,J3,1*%
%TO.N,/R1*%
X179070000Y-97790000D03*
D12*
%TO.P,J3,2*%
%TO.N,/A*%
X179070000Y-100330000D03*
%TO.P,J3,3*%
%TO.N,/C*%
X176530000Y-97790000D03*
%TO.P,J3,4*%
%TO.N,/CLK*%
X176530000Y-100330000D03*
%TO.P,J3,5*%
%TO.N,/OE*%
X173990000Y-97790000D03*
%TO.P,J3,6*%
%TO.N,GND*%
X173990000Y-100330000D03*
%TO.P,J3,7*%
%TO.N,/LAT*%
X171450000Y-97790000D03*
%TO.P,J3,8*%
%TO.N,/D*%
X171450000Y-100330000D03*
%TO.P,J3,9*%
%TO.N,/B*%
X168910000Y-97790000D03*
%TO.P,J3,10*%
%TO.N,/E*%
X168910000Y-100330000D03*
%TD*%
D13*
%TO.N,+5V*%
X132080000Y-121920000D02*
X132155001Y-121995001D01*
X121920000Y-121920000D02*
X132080000Y-121920000D01*
X121920000Y-121920000D02*
X121920000Y-119380000D01*
X166477998Y-123082002D02*
X171450000Y-118110000D01*
X133242002Y-123082002D02*
X166477998Y-123082002D01*
X132155001Y-121995001D02*
X133242002Y-123082002D01*
%TO.N,/SDA*%
X167734999Y-119285001D02*
X168910000Y-118110000D01*
X162465001Y-119285001D02*
X167734999Y-119285001D01*
X160095001Y-116915001D02*
X162465001Y-119285001D01*
%TO.N,/SCL*%
X163830000Y-118110000D02*
X160095001Y-114375001D01*
X166370000Y-118110000D02*
X163830000Y-118110000D01*
%TO.N,/R1*%
X171844001Y-109295001D02*
X160095001Y-109295001D01*
X180245001Y-100894001D02*
X171844001Y-109295001D01*
X180245001Y-98965001D02*
X180245001Y-100894001D01*
X179070000Y-97790000D02*
X180245001Y-98965001D01*
%TO.N,/A*%
X161834003Y-88975001D02*
X160095001Y-88975001D01*
X170085001Y-97225999D02*
X161834003Y-88975001D01*
X170085001Y-98164003D02*
X170085001Y-97225999D01*
X170885999Y-98965001D02*
X170085001Y-98164003D01*
X177705001Y-98965001D02*
X170885999Y-98965001D01*
X179070000Y-100330000D02*
X177705001Y-98965001D01*
%TO.N,/C*%
X169940411Y-111835001D02*
X160095001Y-111835001D01*
X180695010Y-101080402D02*
X169940411Y-111835001D01*
X180695010Y-97130008D02*
X180695010Y-101080402D01*
X180180001Y-96614999D02*
X180695010Y-97130008D01*
X177705001Y-96614999D02*
X180180001Y-96614999D01*
X176530000Y-97790000D02*
X177705001Y-96614999D01*
%TO.N,/CLK*%
X172644999Y-104215001D02*
X160095001Y-104215001D01*
X176530000Y-100330000D02*
X172644999Y-104215001D01*
%TO.N,/OE*%
X159008000Y-95508000D02*
X160095001Y-96595001D01*
X159008000Y-85913240D02*
X159008000Y-95508000D01*
X159573240Y-85348000D02*
X159008000Y-85913240D01*
X161548000Y-85348000D02*
X159573240Y-85348000D01*
X173990000Y-97790000D02*
X161548000Y-85348000D01*
%TO.N,/LAT*%
X171450000Y-97790000D02*
X160095001Y-86435001D01*
%TO.N,/D*%
X159008000Y-105668000D02*
X160095001Y-106755001D01*
X159008000Y-103693240D02*
X159008000Y-105668000D01*
X159573240Y-103128000D02*
X159008000Y-103693240D01*
X168652000Y-103128000D02*
X159573240Y-103128000D01*
X171450000Y-100330000D02*
X168652000Y-103128000D01*
%TO.N,/B*%
X166370000Y-97790000D02*
X160095001Y-91515001D01*
X168910000Y-97790000D02*
X166370000Y-97790000D01*
%TO.N,/E*%
X166370000Y-100330000D02*
X160095001Y-94055001D01*
X168910000Y-100330000D02*
X166370000Y-100330000D01*
%TD*%
M02*
